<?xml version="1.0" standalone="no"?><!DOCTYPE svg PUBLIC "-//W3C//DTD SVG 1.1//EN" "http://www.w3.org/Graphics/SVG/1.1/DTD/svg11.dtd"><svg class="icon" width="200px" height="200.00px" viewBox="0 0 1024 1024" version="1.1" xmlns="http://www.w3.org/2000/svg"><path fill="#ffffff" d="M328.533333 806.4l-256-247.466667c-4.266667-4.266667-8.533333-8.533333-8.533333-17.066666 0-4.266667 0-12.8 4.266667-17.066667l256-264.533333 29.866666 29.866666-243.2 251.733334 238.933334 230.4-21.333334 34.133333zM695.466667 806.4l-29.866667-29.866667 238.933333-230.4-243.2-251.733333 29.866667-29.866667 256 264.533334c4.266667 4.266667 4.266667 8.533333 4.266667 17.066666 0 4.266667-4.266667 12.8-8.533334 17.066667l-247.466666 243.2zM427.221333 934.954667L576 81.706667l42.026667 7.338666-148.778667 853.248z" /></svg>