<?xml version="1.0" standalone="no"?><!DOCTYPE svg PUBLIC "-//W3C//DTD SVG 1.1//EN" "http://www.w3.org/Graphics/SVG/1.1/DTD/svg11.dtd"><svg class="icon" width="200px" height="200.00px" viewBox="0 0 1024 1024" version="1.1" xmlns="http://www.w3.org/2000/svg"><path fill="#ffffff" d="M512 960C264.533333 960 64 759.466667 64 512S264.533333 64 512 64 960 264.533333 960 512 759.466667 960 512 960z m0-853.333333c-221.866667 0-405.333333 183.466667-405.333333 405.333333s183.466667 405.333333 405.333333 405.333333 405.333333-183.466667 405.333333-405.333333-183.466667-405.333333-405.333333-405.333333zM512 512c-72.533333 0-128-55.466667-128-128s55.466667-128 128-128 128 55.466667 128 128-55.466667 128-128 128z m0-213.333333c-46.933333 0-85.333333 38.4-85.333333 85.333333s38.4 85.333333 85.333333 85.333333 85.333333-38.4 85.333333-85.333333-38.4-85.333333-85.333333-85.333333zM234.666667 819.2l-42.666667-4.266667C200.533333 695.466667 302.933333 597.333333 426.666667 597.333333h170.666666c123.733333 0 226.133333 93.866667 234.666667 217.6l-42.666667 4.266667c-8.533333-102.4-89.6-179.2-192-179.2h-170.666666c-102.4 0-183.466667 76.8-192 179.2z" /></svg>